<svg  viewBox="0 0 24 24" width="384px" height="384px"><path fill="none" stroke="#000000" stroke-miterlimit="10" stroke-width="2" d="M12 3A9 9 0 1 0 12 21A9 9 0 1 0 12 3Z"/><path d="M9.079 12L11.366 12 12 10.859 12 10.859 13.144 8.8 13.144 8.8 14.359 6.611 12.611 5.641 12 6.741 11.389 5.641 9.641 6.611 10.856 8.8zM18 13h-2.523l-1.761-3.17-1.144 2.059.359.646 1.354 2.437c-.004.005-.011.014-.015.019-.002.003-.004.007-.006.01h.037l1.311 2.359 1.748-.971L16.588 15H18V13zM12.046 13h-.452H10.81 8.523 7c-.014 0-.025.007-.039.008C6.956 13.005 6.952 13.003 6.947 13H6v2h1.412l-.771 1.389 1.748.971L9.699 15h3.458L12.046 13z"/></svg>